<svg xmlns="http://www.w3.org/2000/svg" version="1.1" xmlns:xlink="http://www.w3.org/1999/xlink" xmlns:svgjs="http://svgjs.dev/svgjs" width="1000" height="1357" viewBox="0 0 1000 1357"><g transform="matrix(1,0,0,1,-0.21769754055463864,0.5504072320104569)"><svg viewBox="0 0 182 247" data-background-color="#ffffff" preserveAspectRatio="xMidYMid meet" height="1357" width="1000" xmlns="http://www.w3.org/2000/svg" xmlns:xlink="http://www.w3.org/1999/xlink"><g id="tight-bounds" transform="matrix(1,0,0,1,0.03962095238094321,-0.09997365579206985)"><svg viewBox="0 0 181.9207580952381 247.2" height="247.2" width="181.9207580952381"><g><svg viewBox="0 0 181.9207580952381 247.2" height="247.2" width="181.9207580952381"><g><svg viewBox="0 0 181.9207580952381 247.2" height="247.2" width="181.9207580952381"><g id="textblocktransform"><svg viewBox="0 0 181.9207580952381 247.2" height="247.2" width="181.9207580952381" id="textblock"><g><svg viewBox="0 0 181.9207580952381 247.2" height="247.2" width="181.9207580952381"><path d="M181.495 53.02C180.64 27.36 178.202 20.227 178.202 20.227 170.719-6.202 161.379-0.506 152.989 3.292 138.177 3.446 123.423 9.091 108.645 12.119 77.625 12.581 46.34 4.986 15.474 23.717 12.575 29.464-3.008 24.846 0.516 56.304 1.439 69.39 4.809 83.913 4.706 95.922 5.168 98.026 5.81 93.202 6.083 96.23 7.041 104.39 8.606 100.541 9.889 105.365 8.102 118.246 9.385 128.971 10.608 140.21 8.452 143.135 5.69 141.749 4.45 151.449 4.322 158.479 3.629 157.145 2.868 156.837 2.312 156.632 1.191 157.402 1.38 159.608 2.021 167.152-0.733 171.514 0.995 178.904-0.194 186.91 1.816 193.838 1.542 202.511 1.508 204.255 1.696 205.744 1.995 206.154 3.321 208.361 1.388 212.672 1.593 217.342 15.192 249.262 29.945 227.195 43.877 241.872 47.495 231.608 44.775 245.516 46.22 243.36 47.349 240.846 48.17 251.263 49.444 245.362 49.641 243.668 49.342 239.665 50.043 240.435 50.411 240.846 50.736 240.743 50.787 238.382 50.864 234.841 50.189 237.048 50.009 235.201 51.95 225.861 51.471 248.081 53.293 247.158 53.208 244.438 52.677 240.538 53.763 241.051 54.841 237.151 54.875 233.918 55.833 242.693 55.867 244.592 56.038 245.926 56.312 246.85 59.305 237.305 62.282 250.237 65.421 245.926 67.345 241.205 69.192 248.492 71.142 246.696 71.826 245.259 72.519 242.693 73.178 247.004 81.243 247.928 89.838 244.079 97.484 247.158 117.916 241.41 139.75 249.518 161.294 241.923 166.374 238.998 171.651 234.841 176.603 231.506 176.603 231.506 180.614 222.371 180.614 181.316S181.469 145.393 181.597 112.703C181.726 80.013 182.324 78.679 181.469 53.02Z" opacity="1" fill="#ee3e38" data-fill-palette-color="tertiary"></path><g transform="matrix(1,0,0,1,55.76832000000001,26.230666666666668)"><svg width="70.3841180952381" viewBox="1.9500000476837158 -35 12.65000057220459 35" height="194.73866666666666" data-palette-color="#ffffff"><path d="M13.75 0L1.95 0 1.95-33.75Q1.95-34.4 2.15-34.65 2.35-34.9 3.33-34.95 4.3-35 6.55-35L6.55-35 6.55-4.3 14.6-4.3 14.6-0.9Q14.6-0.35 14.38-0.18 14.15 0 13.75 0L13.75 0Z" opacity="1" transform="matrix(1,0,0,1,0,0)" fill="#ffffff" class="wordmark-text-0" data-fill-palette-color="quaternary" id="text-0"></path></svg></g></svg></g></svg></g></svg></g><g></g></svg></g><defs></defs></svg><rect width="181.9207580952381" height="247.2" fill="none" stroke="none" visibility="hidden"></rect></g></svg></g></svg>